<?xml version="1.0" standalone="no"?>
<!DOCTYPE svg PUBLIC "-//W3C//DTD SVG 20010904//EN"
 "http://www.w3.org/TR/2001/REC-SVG-20010904/DTD/svg10.dtd">
<svg version="1.0" xmlns="http://www.w3.org/2000/svg"
 width="256.000000pt" height="256.000000pt" viewBox="0 0 256.000000 256.000000"
 preserveAspectRatio="xMidYMid meet">
<metadata>
Created by potrace 1.14, written by Peter Selinger 2001-2017
</metadata>
<g transform="translate(0.000000,256.000000) scale(0.100000,-0.100000)"
fill="#000000" stroke="none">
<path d="M1331 2416 c2 -2 38 -6 79 -9 44 -3 65 -2 50 3 -24 8 -137 14 -129 6z"/>
<path d="M1253 2403 c9 -2 23 -2 30 0 6 3 -1 5 -18 5 -16 0 -22 -2 -12 -5z"/>
<path d="M1198 2393 c7 -3 16 -2 19 1 4 3 -2 6 -13 5 -11 0 -14 -3 -6 -6z"/>
<path d="M1521 2386 c53 -19 84 -44 179 -142 63 -66 92 -104 109 -147 13 -32
26 -56 28 -53 3 2 -10 35 -28 73 -50 105 -242 284 -303 283 -14 -1 -8 -5 15
-14z"/>
<path d="M1060 2350 c-8 -5 -10 -10 -5 -10 6 0 17 5 25 10 8 5 11 10 5 10 -5
0 -17 -5 -25 -10z"/>
<path d="M751 2173 c-78 -47 -137 -97 -155 -132 -9 -17 10 -3 53 39 37 36 94
80 127 97 32 18 54 33 49 33 -6 0 -39 -17 -74 -37z"/>
<path d="M958 1973 c12 -2 32 -2 45 0 12 2 2 4 -23 4 -25 0 -35 -2 -22 -4z"/>
<path d="M888 1963 c7 -3 16 -2 19 1 4 3 -2 6 -13 5 -11 0 -14 -3 -6 -6z"/>
<path d="M678 1913 c7 -3 16 -2 19 1 4 3 -2 6 -13 5 -11 0 -14 -3 -6 -6z"/>
<path d="M1170 1892 c-34 -12 -121 -17 -365 -21 -241 -5 -325 -9 -340 -19
l-20 -14 20 7 c27 9 155 19 155 13 0 -3 -6 -21 -14 -39 -8 -20 -16 -96 -20
-185 -6 -124 -5 -158 8 -188 8 -20 17 -36 18 -36 2 0 2 29 0 65 -3 42 -1 65 6
65 11 0 16 -22 27 -119 6 -54 45 -146 52 -124 2 7 0 21 -6 32 -20 36 -11 36
13 0 14 -20 36 -43 49 -52 24 -16 25 -21 24 -104 0 -65 4 -97 16 -120 19 -36
45 -58 33 -27 -21 49 -16 55 11 14 31 -47 60 -76 68 -68 3 2 0 20 -5 39 -6 18
-10 52 -10 73 l0 40 23 -31 c41 -56 108 -103 147 -103 18 0 19 3 10 21 -10 18
-7 17 28 -6 22 -15 46 -40 52 -56 21 -49 34 -47 28 5 -5 40 -4 45 9 34 24 -19
35 -58 22 -74 -6 -8 -32 -21 -58 -28 -25 -8 -38 -15 -29 -15 9 -1 28 3 42 9
14 5 26 7 26 4 0 -14 -47 -60 -56 -57 -6 2 -14 -11 -17 -29 -3 -18 -8 -40 -12
-50 -4 -11 0 -18 14 -23 17 -5 21 -16 24 -78 2 -49 3 -36 4 38 0 61 -2 94 -6
75 -3 -19 -9 -30 -13 -24 -9 14 2 84 12 81 4 -1 27 19 50 45 23 27 76 70 118
98 42 27 72 50 66 50 -5 0 -36 -18 -69 -40 -33 -22 -63 -40 -67 -40 -5 0 -8
10 -8 23 -1 29 -36 106 -62 134 l-20 22 -67 -25 c-36 -14 -77 -24 -90 -22 -17
2 -48 29 -94 83 -80 92 -114 154 -117 210 -3 58 -2 61 15 39 13 -17 13 -15 3
18 -9 32 -8 40 11 63 11 15 21 37 21 48 0 19 -2 19 -28 -6 -15 -15 -33 -27
-39 -27 -11 0 -23 32 -23 64 0 16 3 14 21 -8 12 -15 24 -25 27 -22 2 3 0 11
-6 19 -17 21 -27 97 -12 97 6 0 39 -25 73 -55 33 -30 64 -55 68 -55 4 0 -5 39
-22 87 l-29 86 35 -39 c19 -21 34 -45 35 -52 0 -7 5 -10 10 -7 6 4 8 16 5 28
-2 12 -2 16 1 9 4 -9 16 -3 41 19 33 28 37 29 46 14 7 -12 5 -20 -4 -26 -12
-7 -11 -13 2 -37 15 -27 15 -30 0 -40 -9 -7 12 2 46 19 54 28 61 34 54 53 -5
11 -16 23 -26 25 -15 2 -17 -2 -12 -28 5 -23 3 -31 -8 -31 -22 0 -19 44 4 64
26 23 53 17 63 -14 6 -21 7 -20 4 8 -2 27 0 32 13 27 13 -5 14 -4 3 7 -7 7
-29 17 -49 23 -26 7 -43 21 -57 45 l-21 35 32 -23 c40 -28 133 -72 153 -72 8
1 2 8 -13 16 -38 21 -30 26 17 12 50 -16 60 -37 46 -96 -6 -26 -12 -58 -14
-72 -2 -14 -15 -54 -29 -90 -30 -77 -43 -140 -27 -140 5 0 10 10 10 23 0 12 5
29 10 37 7 11 10 1 10 -36 0 -84 26 -153 76 -201 24 -24 49 -43 55 -43 8 0 8
4 1 13 -20 24 -24 84 -9 119 9 18 18 47 22 63 3 17 14 41 25 55 l20 25 -4 -40
c-2 -22 -11 -58 -20 -79 -9 -22 -15 -41 -13 -42 9 -9 50 32 70 69 l22 42 3
-63 c2 -38 -2 -69 -9 -78 -8 -10 -8 -14 0 -14 6 0 18 12 28 26 l17 26 17 -63
c10 -35 17 -64 16 -65 -1 -1 -24 -13 -52 -27 -27 -14 -59 -33 -70 -42 -11 -9
-3 -7 18 5 21 12 68 36 105 52 37 16 57 27 45 25 -28 -6 -29 3 -3 45 l19 32
11 -28 c5 -15 10 -33 10 -39 0 -21 20 17 20 39 0 11 12 31 26 45 15 13 35 42
45 64 22 48 25 30 4 -22 -12 -28 -12 -33 -1 -24 12 10 26 52 40 116 2 11 4 -2
5 -30 1 -45 3 -48 15 -32 11 14 15 15 19 5 9 -21 65 46 77 94 7 23 9 58 6 78
l-6 35 20 -30 20 -30 0 37 c0 51 -15 85 -59 138 -46 55 -61 82 -61 111 0 18 2
19 15 9 22 -18 20 16 -4 60 -21 40 -18 40 -96 15 -37 -11 -89 -19 -135 -19
-65 0 -86 5 -159 37 -46 21 -113 46 -150 56 -60 16 -70 16 -111 3z m-245 -130
c-4 -11 -2 -12 7 -4 9 7 19 6 32 -4 11 -8 28 -14 37 -14 25 0 34 -19 12 -27
-10 -3 -31 -17 -46 -30 -16 -13 -33 -21 -37 -18 -5 3 -14 31 -21 62 -6 32 -14
64 -17 73 -4 11 0 10 17 -4 12 -11 19 -26 16 -34z m705 -74 c0 -100 -13 -130
-75 -177 l-55 -42 0 34 c0 18 6 39 13 46 10 11 10 13 0 7 -8 -5 -13 -1 -13 11
-1 10 -3 43 -6 74 l-6 56 53 27 c82 40 89 38 89 -36z m161 -21 c-8 -8 -11 -7
-11 4 0 9 3 19 7 23 4 4 9 2 11 -4 3 -7 -1 -17 -7 -23z m-1017 7 c8 -21 8 -24
-3 -24 -5 0 -11 9 -14 20 -6 24 8 27 17 4z m976 -9 c0 -8 -4 -15 -10 -15 -5 0
-7 7 -4 15 4 8 8 15 10 15 2 0 4 -7 4 -15z m-635 -15 c3 -5 1 -10 -4 -10 -6 0
-11 5 -11 10 0 6 2 10 4 10 3 0 8 -4 11 -10z m746 -37 c13 -16 12 -17 -3 -4
-17 13 -22 21 -14 21 2 0 10 -8 17 -17z m-1081 -148 c-7 -9 -15 -13 -19 -10
-3 3 1 10 9 15 21 14 24 12 10 -5z"/>
<path d="M1529 1663 l-24 -28 28 24 c25 23 32 31 24 31 -2 0 -14 -12 -28 -27z"/>
<path d="M1547 1629 c4 -13 8 -18 11 -10 2 7 -1 18 -6 23 -8 8 -9 4 -5 -13z"/>
<path d="M1544 1548 l-19 -23 23 19 c21 18 27 26 19 26 -2 0 -12 -10 -23 -22z"/>
<path d="M419 1823 c-13 -16 -12 -17 4 -4 9 7 17 15 17 17 0 8 -8 3 -21 -13z"/>
<path d="M1620 1103 c-8 -8 -44 -42 -81 -76 -36 -34 -76 -78 -89 -97 -14 -19
15 7 64 58 56 58 99 95 118 100 24 6 27 10 17 18 -10 8 -18 7 -29 -3z"/>
<path d="M1661 1068 c-1 -9 18 -29 42 -45 65 -44 75 -48 39 -14 -18 17 -38 31
-46 31 -7 0 -18 10 -24 23 -8 16 -11 18 -11 5z"/>
<path d="M1709 943 c-13 -16 -36 -41 -49 -58 -24 -29 -25 -29 -1 -10 24 20 86
95 79 95 -2 0 -15 -12 -29 -27z"/>
<path d="M1795 960 c3 -5 11 -10 16 -10 6 0 7 5 4 10 -3 6 -11 10 -16 10 -6 0
-7 -4 -4 -10z"/>
<path d="M1915 950 c-19 -5 -6 -6 35 -3 36 3 67 7 69 9 8 7 -73 2 -104 -6z"/>
<path d="M2079 950 c23 -5 53 -12 65 -16 14 -4 18 -3 11 4 -5 6 -35 13 -65 16
-53 5 -54 5 -11 -4z"/>
<path d="M2179 853 c9 -35 17 -60 19 -54 5 14 -18 110 -27 115 -4 3 0 -25 8
-61z"/>
<path d="M1374 828 l-19 -23 23 19 c12 11 22 21 22 23 0 8 -8 2 -26 -19z"/>
<path d="M1616 810 c-9 -22 -23 -87 -31 -143 -26 -178 -22 -172 -61 -91 -20
43 -45 78 -66 94 -31 23 -31 21 10 -24 58 -67 53 -76 -9 -13 l-51 52 54 -65
c29 -36 64 -80 77 -98 13 -18 25 -31 27 -29 2 2 14 66 25 143 12 76 27 154 35
173 8 19 13 36 10 38 -2 2 -11 -14 -20 -37z"/>
<path d="M540 818 c0 -12 18 -18 34 -12 24 9 19 19 -9 19 -14 0 -25 -3 -25 -7z"/>
<path d="M1055 800 c-10 -11 -37 -31 -60 -45 -49 -28 -105 -117 -110 -173 -1
-20 -9 -40 -16 -46 -8 -6 -25 -27 -38 -46 -22 -32 -19 -31 25 12 56 53 134 94
146 75 9 -14 15 3 20 55 4 38 -7 40 -14 3 -2 -13 -20 -25 -53 -37 -28 -10 -52
-18 -53 -18 -2 0 12 24 32 53 l37 52 -37 -40 -36 -40 22 45 c23 46 67 100 82
100 5 0 4 -10 -2 -22 -7 -16 -3 -14 12 7 13 16 33 40 46 53 13 13 21 26 19 28
-2 2 -12 -5 -22 -16z"/>
<path d="M525 773 c29 -7 56 -34 72 -71 18 -42 4 -92 -34 -122 -53 -41 -82
-20 -93 68 l-7 57 -2 -50 c-1 -64 16 -99 51 -103 15 -2 32 -10 38 -18 7 -8 17
-14 23 -14 6 0 2 6 -9 14 -15 12 -17 17 -6 27 10 11 15 9 28 -9 8 -12 20 -20
25 -16 6 3 2 12 -10 20 l-20 15 20 39 c15 29 19 50 15 74 -8 44 -56 96 -88 95
-20 -1 -20 -2 -3 -6z"/>
<path d="M1055 760 c-3 -11 -3 -24 0 -30 3 -5 2 -10 -3 -10 -5 0 -12 -10 -15
-22 -6 -23 -6 -23 9 -3 8 11 22 26 32 34 16 13 16 13 -2 7 -15 -5 -17 -2 -12
19 8 30 0 34 -9 5z"/>
<path d="M2202 745 c0 -16 2 -22 5 -12 2 9 2 23 0 30 -3 6 -5 -1 -5 -18z"/>
<path d="M1243 693 c-26 -37 -52 -74 -57 -82 -13 -23 59 58 86 96 27 39 36 40
89 12 23 -11 43 -18 46 -15 5 5 -90 56 -106 56 -5 0 -31 -30 -58 -67z"/>
<path d="M2220 695 c0 -5 16 -41 35 -78 31 -61 35 -77 36 -150 1 -59 3 -74 9
-52 19 75 12 120 -35 206 -24 46 -45 80 -45 74z"/>
<path d="M503 657 c2 -6 16 -13 30 -14 35 -2 34 3 -4 16 -23 8 -30 8 -26 -2z"/>
<path d="M1205 599 c-9 -17 -15 -33 -13 -35 3 -2 12 12 21 31 21 43 13 47 -8
4z"/>
<path d="M1145 555 c-8 -14 -22 -36 -30 -50 -9 -14 -19 -24 -23 -21 -4 2 -8
-4 -8 -14 0 -17 2 -18 17 -4 18 16 74 114 65 114 -3 0 -12 -11 -21 -25z"/>
<path d="M986 545 c-3 -9 -6 -22 -5 -28 0 -7 5 -1 10 12 5 13 8 26 5 28 -2 2
-6 -3 -10 -12z"/>
<path d="M1055 526 c10 -14 19 -26 22 -26 7 0 -17 39 -28 46 -6 3 -3 -5 6 -20z"/>
<path d="M1045 500 c10 -11 20 -20 23 -20 3 0 -3 9 -13 20 -10 11 -20 20 -23
20 -3 0 3 -9 13 -20z"/>
<path d="M1120 424 c-28 -77 -50 -229 -49 -339 l2 -90 8 120 c10 134 33 271
55 324 8 19 12 36 10 38 -2 3 -14 -21 -26 -53z"/>
<path d="M915 388 c-25 -40 -62 -107 -82 -148 -42 -88 -95 -240 -84 -240 4 0
13 19 20 43 32 107 91 231 183 385 38 62 9 31 -37 -40z"/>
<path d="M1599 436 c9 -11 6 -17 -13 -30 -14 -9 -43 -46 -65 -83 -21 -38 -66
-99 -98 -138 -96 -115 -103 -126 -102 -159 1 -32 3 -29 13 17 4 15 28 51 54
80 26 28 83 103 126 166 43 62 86 116 96 118 21 6 16 28 -7 37 -13 5 -13 4 -4
-8z"/>
<path d="M1077 433 c-16 -27 -60 -433 -47 -433 3 0 12 66 19 148 7 81 19 180
26 220 11 68 12 82 2 65z"/>
<path d="M791 414 c0 -11 3 -14 6 -6 3 7 2 16 -1 19 -3 4 -6 -2 -5 -13z"/>
<path d="M780 370 c0 -11 -7 -37 -16 -58 -19 -42 -35 -134 -22 -126 4 3 8 22
8 42 0 21 7 47 15 59 15 22 32 103 21 103 -3 0 -6 -9 -6 -20z"/>
<path d="M2280 375 c0 -5 9 -35 20 -65 17 -48 19 -50 13 -16 -5 36 -33 104
-33 81z"/>
<path d="M2326 173 c4 -71 9 -89 35 -128 17 -26 34 -44 36 -41 3 3 -7 22 -23
43 -23 30 -32 56 -41 123 l-12 85 5 -82z"/>
<path d="M2134 138 l-19 -23 23 19 c12 11 22 21 22 23 0 8 -8 2 -26 -19z"/>
<path d="M701 118 c-7 -18 -23 -50 -37 -71 -14 -22 -23 -41 -21 -44 6 -5 51
69 67 111 6 16 9 31 6 33 -2 2 -9 -11 -15 -29z"/>
<path d="M725 58 c-13 -29 -22 -54 -20 -57 6 -6 7 -5 32 57 27 67 19 68 -12 0z"/>
</g>
</svg>
